<?xml version="1.0" standalone="no"?>
<svg xmlns:xlink="http://www.w3.org/1999/xlink" id="wave" style="transform:rotate(0deg); transition: 0.3s" viewBox="0 0 1440 490" version="1.1" xmlns="http://www.w3.org/2000/svg"><defs><linearGradient id="sw-gradient-0" x1="0" x2="0" y1="1" y2="0"><stop stop-color="rgba(243, 106, 62, 1)" offset="0%"/><stop stop-color="rgba(255, 179, 11, 1)" offset="100%"/></linearGradient></defs><path style="transform:translate(0, 0px); opacity:1" fill="url(#sw-gradient-0)" d="M0,147L26.7,155.2C53.3,163,107,180,160,204.2C213.3,229,267,261,320,285.8C373.3,310,427,327,480,310.3C533.3,294,587,245,640,212.3C693.3,180,747,163,800,171.5C853.3,180,907,212,960,196C1013.3,180,1067,114,1120,81.7C1173.3,49,1227,49,1280,106.2C1333.3,163,1387,278,1440,310.3C1493.3,343,1547,294,1600,277.7C1653.3,261,1707,278,1760,302.2C1813.3,327,1867,359,1920,310.3C1973.3,261,2027,131,2080,122.5C2133.3,114,2187,229,2240,277.7C2293.3,327,2347,310,2400,269.5C2453.3,229,2507,163,2560,179.7C2613.3,196,2667,294,2720,351.2C2773.3,408,2827,425,2880,424.7C2933.3,425,2987,408,3040,408.3C3093.3,408,3147,425,3200,359.3C3253.3,294,3307,147,3360,122.5C3413.3,98,3467,196,3520,212.3C3573.3,229,3627,163,3680,163.3C3733.3,163,3787,229,3813,261.3L3840,294L3840,490L3813.3,490C3786.7,490,3733,490,3680,490C3626.7,490,3573,490,3520,490C3466.7,490,3413,490,3360,490C3306.7,490,3253,490,3200,490C3146.7,490,3093,490,3040,490C2986.7,490,2933,490,2880,490C2826.7,490,2773,490,2720,490C2666.7,490,2613,490,2560,490C2506.7,490,2453,490,2400,490C2346.7,490,2293,490,2240,490C2186.7,490,2133,490,2080,490C2026.7,490,1973,490,1920,490C1866.7,490,1813,490,1760,490C1706.7,490,1653,490,1600,490C1546.7,490,1493,490,1440,490C1386.7,490,1333,490,1280,490C1226.7,490,1173,490,1120,490C1066.7,490,1013,490,960,490C906.7,490,853,490,800,490C746.7,490,693,490,640,490C586.7,490,533,490,480,490C426.7,490,373,490,320,490C266.7,490,213,490,160,490C106.7,490,53,490,27,490L0,490Z"/><defs><linearGradient id="sw-gradient-1" x1="0" x2="0" y1="1" y2="0"><stop stop-color="rgba(243, 106, 62, 1)" offset="0%"/><stop stop-color="rgba(255, 179, 11, 1)" offset="100%"/></linearGradient></defs><path style="transform:translate(0, 50px); opacity:0.9" fill="url(#sw-gradient-1)" d="M0,49L26.7,40.8C53.3,33,107,16,160,65.3C213.3,114,267,229,320,285.8C373.3,343,427,343,480,351.2C533.3,359,587,376,640,334.8C693.3,294,747,196,800,171.5C853.3,147,907,196,960,179.7C1013.3,163,1067,82,1120,73.5C1173.3,65,1227,131,1280,130.7C1333.3,131,1387,65,1440,98C1493.3,131,1547,261,1600,269.5C1653.3,278,1707,163,1760,130.7C1813.3,98,1867,147,1920,212.3C1973.3,278,2027,359,2080,334.8C2133.3,310,2187,180,2240,163.3C2293.3,147,2347,245,2400,302.2C2453.3,359,2507,376,2560,392C2613.3,408,2667,425,2720,416.5C2773.3,408,2827,376,2880,367.5C2933.3,359,2987,376,3040,351.2C3093.3,327,3147,261,3200,253.2C3253.3,245,3307,294,3360,294C3413.3,294,3467,245,3520,204.2C3573.3,163,3627,131,3680,171.5C3733.3,212,3787,327,3813,383.8L3840,441L3840,490L3813.3,490C3786.7,490,3733,490,3680,490C3626.7,490,3573,490,3520,490C3466.7,490,3413,490,3360,490C3306.7,490,3253,490,3200,490C3146.7,490,3093,490,3040,490C2986.7,490,2933,490,2880,490C2826.7,490,2773,490,2720,490C2666.7,490,2613,490,2560,490C2506.7,490,2453,490,2400,490C2346.7,490,2293,490,2240,490C2186.7,490,2133,490,2080,490C2026.7,490,1973,490,1920,490C1866.7,490,1813,490,1760,490C1706.7,490,1653,490,1600,490C1546.7,490,1493,490,1440,490C1386.7,490,1333,490,1280,490C1226.7,490,1173,490,1120,490C1066.7,490,1013,490,960,490C906.7,490,853,490,800,490C746.7,490,693,490,640,490C586.7,490,533,490,480,490C426.7,490,373,490,320,490C266.7,490,213,490,160,490C106.7,490,53,490,27,490L0,490Z"/><defs><linearGradient id="sw-gradient-2" x1="0" x2="0" y1="1" y2="0"><stop stop-color="rgba(243, 106, 62, 1)" offset="0%"/><stop stop-color="rgba(255, 179, 11, 1)" offset="100%"/></linearGradient></defs><path style="transform:translate(0, 100px); opacity:0.8" fill="url(#sw-gradient-2)" d="M0,343L26.7,285.8C53.3,229,107,114,160,73.5C213.3,33,267,65,320,98C373.3,131,427,163,480,212.3C533.3,261,587,327,640,294C693.3,261,747,131,800,98C853.3,65,907,131,960,171.5C1013.3,212,1067,229,1120,228.7C1173.3,229,1227,212,1280,179.7C1333.3,147,1387,98,1440,122.5C1493.3,147,1547,245,1600,269.5C1653.3,294,1707,245,1760,187.8C1813.3,131,1867,65,1920,106.2C1973.3,147,2027,294,2080,318.5C2133.3,343,2187,245,2240,196C2293.3,147,2347,147,2400,138.8C2453.3,131,2507,114,2560,138.8C2613.3,163,2667,229,2720,269.5C2773.3,310,2827,327,2880,351.2C2933.3,376,2987,408,3040,351.2C3093.3,294,3147,147,3200,122.5C3253.3,98,3307,196,3360,228.7C3413.3,261,3467,229,3520,236.8C3573.3,245,3627,294,3680,294C3733.3,294,3787,245,3813,220.5L3840,196L3840,490L3813.3,490C3786.7,490,3733,490,3680,490C3626.7,490,3573,490,3520,490C3466.7,490,3413,490,3360,490C3306.7,490,3253,490,3200,490C3146.7,490,3093,490,3040,490C2986.7,490,2933,490,2880,490C2826.7,490,2773,490,2720,490C2666.7,490,2613,490,2560,490C2506.7,490,2453,490,2400,490C2346.7,490,2293,490,2240,490C2186.7,490,2133,490,2080,490C2026.7,490,1973,490,1920,490C1866.7,490,1813,490,1760,490C1706.7,490,1653,490,1600,490C1546.7,490,1493,490,1440,490C1386.7,490,1333,490,1280,490C1226.7,490,1173,490,1120,490C1066.7,490,1013,490,960,490C906.7,490,853,490,800,490C746.7,490,693,490,640,490C586.7,490,533,490,480,490C426.7,490,373,490,320,490C266.7,490,213,490,160,490C106.7,490,53,490,27,490L0,490Z"/></svg>